<svg width="1162" height="783" viewBox="0 0 1162 783" fill="none" xmlns="http://www.w3.org/2000/svg">
<path d="M333.5 566C838.5 300 406 318 1161.5 163V6C456.355 148.5 629.5 306.293 297.5 490C222.5 531.5 59 551 0 551V627.5V605.5C50.5 605.5 185 605.5 333.5 566Z" fill="#E78080"/>
<path d="M1161.5 460.5C983.5 444.333 562.6 331.6 323 0H472.5C552.5 86.5 759.5 214.5 1161.5 280.5V460.5Z" fill="#E78080"/>
<path d="M472.5 783H323C204.5 605.5 173 566 0 352.5V260C54.5 345 216 505 271 566C326 627 382.5 682 472.5 783Z" fill="#E78080"/>
<path d="M98 162.134L97.7246 139C97.082 140.01 95.2275 146.069 93.6852 149.007C92.143 151.944 88.3913 149.251 86.7082 147.538C87.5956 152.281 88.6177 159.839 88.9115 160.941C89.205 162.042 87.9037 162.104 87.2605 162.134L87.259 162.134L81.5672 156.902C81.353 158.615 80.3738 161.4 78.3541 161.4C76.2344 161.4 72.8459 160.39 71.377 160.207C71.8361 162.165 73.1213 163.603 73.7639 167.734C74.0021 169.265 73.4273 170.121 72.7541 170.489C70.6243 170.782 70.0306 171.284 70 171.498C80.7961 178.99 81.2306 183.28 81.5672 183.892C81.5978 184.596 81.6223 185.306 80.741 186.554C79.8597 187.803 80.129 188.972 80.3738 189.033C83.5869 188.329 93.1161 185.967 94.5115 185.82C95.9069 185.673 95.6743 186.309 95.7967 186.554L94.9705 202.528H97.8164V183.066H97.541C89.3705 184.259 82.3016 178.292 83.8623 178.292C85.3764 178.292 88.1465 178.69 89.3705 178.843C86.9224 176.792 82.4211 171.617 83.8623 172.141C84.8721 172.508 89.2481 173.671 91.0229 174.711C89.5541 171.651 86.6923 165.558 88.177 166.725C89.4623 167.734 93.2262 169.326 94.2361 170.672C94.897 167.514 97.0208 163.664 98 162.134Z" fill="black" fill-opacity="0.12"/>
<path d="M371 345.134L370.725 322C370.082 323.01 368.228 329.069 366.685 332.007C365.143 334.944 361.391 332.251 359.708 330.538C360.596 335.281 361.618 342.839 361.911 343.941C362.205 345.042 360.904 345.104 360.261 345.134L360.259 345.134L354.567 339.902C354.353 341.615 353.374 344.4 351.354 344.4C349.234 344.4 345.846 343.39 344.377 343.207C344.836 345.165 346.121 346.603 346.764 350.734C347.002 352.265 346.427 353.121 345.754 353.489C343.624 353.782 343.031 354.284 343 354.498C353.796 361.99 354.231 366.28 354.567 366.892C354.598 367.596 354.622 368.306 353.741 369.554C352.86 370.803 353.129 371.972 353.374 372.033C356.587 371.329 366.116 368.967 367.511 368.82C368.907 368.673 368.674 369.309 368.797 369.554L367.97 385.528H370.816V366.066H370.541C362.371 367.259 355.302 361.292 356.862 361.292C358.376 361.292 361.146 361.69 362.371 361.843C359.922 359.792 355.421 354.617 356.862 355.141C357.872 355.508 362.248 356.671 364.023 357.711C362.554 354.651 359.692 348.558 361.177 349.725C362.462 350.734 366.226 352.326 367.236 353.672C367.897 350.514 370.021 346.664 371 345.134Z" fill="black" fill-opacity="0.12"/>
<path d="M236 255.482L235.744 234C235.148 234.938 233.426 240.564 231.993 243.292C230.561 246.02 227.078 243.519 225.515 241.928C226.339 246.332 227.288 253.351 227.561 254.374C227.833 255.396 226.625 255.453 226.028 255.482L226.026 255.482L220.741 250.623C220.542 252.214 219.633 254.8 217.757 254.8C215.789 254.8 212.643 253.862 211.279 253.692C211.705 255.51 212.898 256.846 213.495 260.682C213.716 262.103 213.183 262.898 212.557 263.239C210.58 263.512 210.028 263.978 210 264.177C220.025 271.133 220.428 275.117 220.741 275.685C220.769 276.339 220.792 276.998 219.974 278.157C219.155 279.317 219.405 280.402 219.633 280.459C222.616 279.805 231.465 277.612 232.761 277.475C234.056 277.339 233.84 277.93 233.954 278.157L233.187 292.99H235.83V274.918H235.574C227.987 276.026 221.423 270.485 222.872 270.485C224.278 270.485 226.85 270.855 227.987 270.997C225.714 269.093 221.534 264.287 222.872 264.774C223.81 265.115 227.873 266.195 229.521 267.161C228.157 264.319 225.5 258.661 226.879 259.744C228.072 260.682 231.567 262.16 232.505 263.41C233.119 260.477 235.091 256.903 236 255.482Z" fill="black" fill-opacity="0.12"/>
<path d="M1027 547.482L1026.74 526C1026.15 526.938 1024.43 532.564 1022.99 535.292C1021.56 538.02 1018.08 535.519 1016.51 533.928C1017.34 538.332 1018.29 545.351 1018.56 546.374C1018.83 547.396 1017.62 547.453 1017.03 547.482L1017.03 547.482L1011.74 542.623C1011.54 544.214 1010.63 546.8 1008.76 546.8C1006.79 546.8 1003.64 545.862 1002.28 545.692C1002.7 547.51 1003.9 548.846 1004.5 552.682C1004.72 554.103 1004.18 554.898 1003.56 555.239C1001.58 555.512 1001.03 555.978 1001 556.177C1011.02 563.133 1011.43 567.117 1011.74 567.685C1011.77 568.339 1011.79 568.998 1010.97 570.157C1010.16 571.317 1010.41 572.402 1010.63 572.459C1013.62 571.805 1022.46 569.612 1023.76 569.475C1025.06 569.339 1024.84 569.93 1024.95 570.157L1024.19 584.99H1026.83V566.918H1026.57C1018.99 568.026 1012.42 562.485 1013.87 562.485C1015.28 562.485 1017.85 562.855 1018.99 562.997C1016.71 561.093 1012.53 556.287 1013.87 556.774C1014.81 557.115 1018.87 558.195 1020.52 559.161C1019.16 556.319 1016.5 550.661 1017.88 551.744C1019.07 552.682 1022.57 554.16 1023.5 555.41C1024.12 552.477 1026.09 548.903 1027 547.482Z" fill="black" fill-opacity="0.12"/>
<path d="M735 589.482L734.744 568C734.148 568.938 732.426 574.564 730.993 577.292C729.561 580.02 726.078 577.519 724.515 575.928C725.339 580.332 726.288 587.351 726.561 588.374C726.833 589.396 725.625 589.453 725.028 589.482L725.026 589.482L719.741 584.623C719.542 586.214 718.633 588.8 716.757 588.8C714.789 588.8 711.643 587.862 710.279 587.692C710.705 589.51 711.898 590.846 712.495 594.682C712.716 596.103 712.183 596.898 711.557 597.239C709.58 597.512 709.028 597.978 709 598.177C719.025 605.133 719.428 609.117 719.741 609.685C719.769 610.339 719.792 610.998 718.974 612.157C718.155 613.317 718.405 614.402 718.633 614.459C721.616 613.805 730.465 611.612 731.761 611.475C733.056 611.339 732.84 611.93 732.954 612.157L732.187 626.99H734.83V608.918H734.574C726.987 610.026 720.423 604.485 721.872 604.485C723.278 604.485 725.85 604.855 726.987 604.997C724.714 603.093 720.534 598.287 721.872 598.774C722.81 599.115 726.873 600.195 728.521 601.161C727.157 598.319 724.5 592.661 725.879 593.744C727.072 594.682 730.567 596.16 731.505 597.41C732.119 594.477 734.091 590.903 735 589.482Z" fill="black" fill-opacity="0.12"/>
<path d="M142 314.482L141.744 293C141.148 293.938 139.426 299.564 137.993 302.292C136.561 305.02 133.078 302.519 131.515 300.928C132.339 305.332 133.288 312.351 133.561 313.374C133.833 314.396 132.625 314.453 132.028 314.482L132.026 314.482L126.741 309.623C126.542 311.214 125.633 313.8 123.757 313.8C121.789 313.8 118.643 312.862 117.279 312.692C117.705 314.51 118.898 315.846 119.495 319.682C119.716 321.103 119.183 321.898 118.557 322.239C116.58 322.512 116.028 322.978 116 323.177C126.025 330.133 126.428 334.117 126.741 334.685C126.769 335.339 126.792 335.998 125.974 337.157C125.155 338.317 125.405 339.402 125.633 339.459C128.616 338.805 137.465 336.612 138.761 336.475C140.056 336.339 139.84 336.93 139.954 337.157L139.187 351.99H141.83V333.918H141.574C133.987 335.026 127.423 329.485 128.872 329.485C130.278 329.485 132.85 329.855 133.987 329.997C131.714 328.093 127.534 323.287 128.872 323.774C129.81 324.115 133.873 325.195 135.521 326.161C134.157 323.319 131.5 317.661 132.879 318.744C134.072 319.682 137.567 321.16 138.505 322.41C139.119 319.477 141.091 315.903 142 314.482Z" fill="black" fill-opacity="0.12"/>
<path d="M594 530.482L593.744 509C593.148 509.938 591.426 515.564 589.993 518.292C588.561 521.02 585.078 518.519 583.515 516.928C584.339 521.332 585.288 528.351 585.561 529.374C585.833 530.396 584.625 530.453 584.028 530.482L584.026 530.482L578.741 525.623C578.542 527.214 577.633 529.8 575.757 529.8C573.789 529.8 570.643 528.862 569.279 528.692C569.705 530.51 570.898 531.846 571.495 535.682C571.716 537.103 571.183 537.898 570.557 538.239C568.58 538.512 568.028 538.978 568 539.177C578.025 546.133 578.428 550.117 578.741 550.685C578.769 551.339 578.792 551.998 577.974 553.157C577.155 554.317 577.405 555.402 577.633 555.459C580.616 554.805 589.465 552.612 590.761 552.475C592.056 552.339 591.84 552.93 591.954 553.157L591.187 567.99H593.83V549.918H593.574C585.987 551.026 579.423 545.485 580.872 545.485C582.278 545.485 584.85 545.855 585.987 545.997C583.714 544.093 579.534 539.287 580.872 539.774C581.81 540.115 585.873 541.195 587.521 542.161C586.157 539.319 583.5 533.661 584.879 534.744C586.072 535.682 589.567 537.16 590.505 538.41C591.119 535.477 593.091 531.903 594 530.482Z" fill="black" fill-opacity="0.12"/>
<path d="M863 456.482L862.744 435C862.148 435.938 860.426 441.564 858.993 444.292C857.561 447.02 854.078 444.519 852.515 442.928C853.339 447.332 854.288 454.351 854.561 455.374C854.833 456.396 853.625 456.453 853.028 456.482L853.026 456.482L847.741 451.623C847.542 453.214 846.633 455.8 844.757 455.8C842.789 455.8 839.643 454.862 838.279 454.692C838.705 456.51 839.898 457.846 840.495 461.682C840.716 463.103 840.183 463.898 839.557 464.239C837.58 464.512 837.028 464.978 837 465.177C847.025 472.133 847.428 476.117 847.741 476.685C847.769 477.339 847.792 477.998 846.974 479.157C846.155 480.317 846.405 481.402 846.633 481.459C849.616 480.805 858.465 478.612 859.761 478.475C861.056 478.339 860.84 478.93 860.954 479.157L860.187 493.99H862.83V475.918H862.574C854.987 477.026 848.423 471.485 849.872 471.485C851.278 471.485 853.85 471.855 854.987 471.997C852.714 470.093 848.534 465.287 849.872 465.774C850.81 466.115 854.873 467.195 856.521 468.161C855.157 465.319 852.5 459.661 853.879 460.744C855.072 461.682 858.567 463.16 859.505 464.41C860.119 461.477 862.091 457.903 863 456.482Z" fill="black" fill-opacity="0.12"/>
<path d="M652 714.482L651.744 693C651.148 693.938 649.426 699.564 647.993 702.292C646.561 705.02 643.078 702.519 641.515 700.928C642.339 705.332 643.288 712.351 643.561 713.374C643.833 714.396 642.625 714.453 642.028 714.482L642.026 714.482L636.741 709.623C636.542 711.214 635.633 713.8 633.757 713.8C631.789 713.8 628.643 712.862 627.279 712.692C627.705 714.51 628.898 715.846 629.495 719.682C629.716 721.103 629.183 721.898 628.557 722.239C626.58 722.512 626.028 722.978 626 723.177C636.025 730.133 636.428 734.117 636.741 734.685C636.769 735.339 636.792 735.998 635.974 737.157C635.155 738.317 635.405 739.402 635.633 739.459C638.616 738.805 647.465 736.612 648.761 736.475C650.056 736.339 649.84 736.93 649.954 737.157L649.187 751.99H651.83V733.918H651.574C643.987 735.026 637.423 729.485 638.872 729.485C640.278 729.485 642.85 729.855 643.987 729.997C641.714 728.093 637.534 723.287 638.872 723.774C639.81 724.115 643.873 725.195 645.521 726.161C644.157 723.319 641.5 717.661 642.879 718.744C644.072 719.682 647.567 721.16 648.505 722.41C649.119 719.477 651.091 715.903 652 714.482Z" fill="black" fill-opacity="0.12"/>
<path d="M607 26.482L606.744 5C606.148 5.9377 604.426 11.5639 602.993 14.2918C601.561 17.0197 598.078 14.5191 596.515 12.9279C597.339 17.3322 598.288 24.3508 598.561 25.3738C598.833 26.3959 597.625 26.4535 597.028 26.4819L597.026 26.482L591.741 21.6229C591.542 23.2142 590.633 25.8 588.757 25.8C586.789 25.8 583.643 24.8623 582.279 24.6918C582.705 26.5104 583.898 27.8459 584.495 31.682C584.716 33.1035 584.183 33.8984 583.557 34.2393C581.58 34.5121 581.028 34.9781 581 35.177C591.025 42.1331 591.428 46.1169 591.741 46.6852C591.769 47.3388 591.792 47.998 590.974 49.1574C590.155 50.3167 590.405 51.4022 590.633 51.459C593.616 50.8055 602.465 48.6118 603.761 48.4754C605.056 48.339 604.84 48.93 604.954 49.1574L604.187 63.9902H606.83V45.918H606.574C598.987 47.0262 592.423 41.4852 593.872 41.4852C595.278 41.4852 597.85 41.8546 598.987 41.9967C596.714 40.0929 592.534 35.2871 593.872 35.7738C594.81 36.1148 598.873 37.1945 600.521 38.1607C599.157 35.3191 596.5 29.661 597.879 30.7443C599.072 31.682 602.567 33.1596 603.505 34.4098C604.119 31.4774 606.091 27.9027 607 26.482Z" fill="black" fill-opacity="0.12"/>
<path d="M1047 219.525L1046.8 203C1046.34 203.721 1045.02 208.049 1043.92 210.148C1042.82 212.246 1040.14 210.322 1038.93 209.098C1039.57 212.486 1040.3 217.885 1040.51 218.672C1040.72 219.458 1039.79 219.503 1039.33 219.525L1039.33 219.525L1035.26 215.787C1035.11 217.011 1034.41 219 1032.97 219C1031.45 219 1029.03 218.279 1027.98 218.148C1028.31 219.546 1029.23 220.574 1029.69 223.525C1029.86 224.618 1029.45 225.23 1028.97 225.492C1027.45 225.702 1027.02 226.06 1027 226.213C1034.71 231.564 1035.02 234.628 1035.26 235.066C1035.28 235.568 1035.3 236.075 1034.67 236.967C1034.04 237.859 1034.23 238.694 1034.41 238.738C1036.7 238.235 1043.51 236.548 1044.51 236.443C1045.5 236.338 1045.34 236.792 1045.43 236.967L1044.84 248.377H1046.87V234.475H1046.67C1040.84 235.328 1035.79 231.066 1036.9 231.066C1037.98 231.066 1039.96 231.35 1040.84 231.459C1039.09 229.995 1035.87 226.298 1036.9 226.672C1037.62 226.934 1040.75 227.765 1042.02 228.508C1040.97 226.322 1038.92 221.97 1039.98 222.803C1040.9 223.525 1043.59 224.661 1044.31 225.623C1044.78 223.367 1046.3 220.617 1047 219.525Z" fill="black" fill-opacity="0.12"/>
<path d="M381 219.525L380.803 203C380.344 203.721 379.02 208.049 377.918 210.148C376.816 212.246 374.137 210.322 372.934 209.098C373.568 212.486 374.298 217.885 374.508 218.672C374.718 219.458 373.788 219.503 373.329 219.525L373.328 219.525L369.262 215.787C369.109 217.011 368.41 219 366.967 219C365.453 219 363.033 218.279 361.984 218.148C362.311 219.546 363.23 220.574 363.689 223.525C363.859 224.618 363.448 225.23 362.967 225.492C361.446 225.702 361.022 226.06 361 226.213C368.711 231.564 369.022 234.628 369.262 235.066C369.284 235.568 369.302 236.075 368.672 236.967C368.043 237.859 368.235 238.694 368.41 238.738C370.705 238.235 377.511 236.548 378.508 236.443C379.505 236.338 379.339 236.792 379.426 236.967L378.836 248.377H380.869V234.475H380.672C374.836 235.328 369.787 231.066 370.902 231.066C371.983 231.066 373.962 231.35 374.836 231.459C373.087 229.995 369.872 226.298 370.902 226.672C371.623 226.934 374.749 227.765 376.016 228.508C374.967 226.322 372.923 221.97 373.984 222.803C374.902 223.525 377.59 224.661 378.311 225.623C378.784 223.367 380.301 220.617 381 219.525Z" fill="black" fill-opacity="0.12"/>
<path d="M860 568.525L859.803 552C859.344 552.721 858.02 557.049 856.918 559.148C855.816 561.246 853.137 559.322 851.934 558.098C852.568 561.486 853.298 566.885 853.508 567.672C853.718 568.458 852.788 568.503 852.329 568.525L852.328 568.525L848.262 564.787C848.109 566.011 847.41 568 845.967 568C844.453 568 842.033 567.279 840.984 567.148C841.311 568.546 842.23 569.574 842.689 572.525C842.859 573.618 842.448 574.23 841.967 574.492C840.446 574.702 840.022 575.06 840 575.213C847.711 580.564 848.022 583.628 848.262 584.066C848.284 584.568 848.302 585.075 847.672 585.967C847.043 586.859 847.235 587.694 847.41 587.738C849.705 587.235 856.511 585.548 857.508 585.443C858.505 585.338 858.339 585.792 858.426 585.967L857.836 597.377H859.869V583.475H859.672C853.836 584.328 848.787 580.066 849.902 580.066C850.983 580.066 852.962 580.35 853.836 580.459C852.087 578.995 848.872 575.298 849.902 575.672C850.623 575.934 853.749 576.765 855.016 577.508C853.967 575.322 851.923 570.97 852.984 571.803C853.902 572.525 856.59 573.661 857.311 574.623C857.784 572.367 859.301 569.617 860 568.525Z" fill="black" fill-opacity="0.12"/>
<path d="M129 725.525L128.803 709C128.344 709.721 127.02 714.049 125.918 716.148C124.816 718.246 122.137 716.322 120.934 715.098C121.568 718.486 122.298 723.885 122.508 724.672C122.718 725.458 121.788 725.503 121.329 725.525L121.328 725.525L117.262 721.787C117.109 723.011 116.41 725 114.967 725C113.453 725 111.033 724.279 109.984 724.148C110.311 725.546 111.23 726.574 111.689 729.525C111.859 730.618 111.448 731.23 110.967 731.492C109.446 731.702 109.022 732.06 109 732.213C116.711 737.564 117.022 740.628 117.262 741.066C117.284 741.568 117.302 742.075 116.672 742.967C116.043 743.859 116.235 744.694 116.41 744.738C118.705 744.235 125.511 742.548 126.508 742.443C127.505 742.338 127.339 742.792 127.426 742.967L126.836 754.377H128.869V740.475H128.672C122.836 741.328 117.787 737.066 118.902 737.066C119.983 737.066 121.962 737.35 122.836 737.459C121.087 735.995 117.872 732.298 118.902 732.672C119.623 732.934 122.749 733.765 124.016 734.508C122.967 732.322 120.923 727.97 121.984 728.803C122.902 729.525 125.59 730.661 126.311 731.623C126.784 729.367 128.301 726.617 129 725.525Z" fill="black" fill-opacity="0.12"/>
<path d="M722 69.5246L721.803 53C721.344 53.7213 720.02 58.0492 718.918 60.1475C717.816 62.2459 715.137 60.3224 713.934 59.0984C714.568 62.4863 715.298 67.8852 715.508 68.6721C715.718 69.4584 714.788 69.5027 714.329 69.5245L714.328 69.5246L710.262 65.7869C710.109 67.0109 709.41 69 707.967 69C706.453 69 704.033 68.2787 702.984 68.1475C703.311 69.5464 704.23 70.5738 704.689 73.5246C704.859 74.6181 704.448 75.2295 703.967 75.4918C702.446 75.7016 702.022 76.0601 702 76.2131C709.711 81.5639 710.022 84.6284 710.262 85.0656C710.284 85.5683 710.302 86.0754 709.672 86.9672C709.043 87.859 709.235 88.694 709.41 88.7377C711.705 88.235 718.511 86.5475 719.508 86.4426C720.505 86.3377 720.339 86.7923 720.426 86.9672L719.836 98.377H721.869V84.4754H721.672C715.836 85.3279 710.787 81.0656 711.902 81.0656C712.983 81.0656 714.962 81.3497 715.836 81.459C714.087 79.9945 710.872 76.2978 711.902 76.6721C712.623 76.9344 715.749 77.765 717.016 78.5082C715.967 76.3224 713.923 71.97 714.984 72.8033C715.902 73.5246 718.59 74.6612 719.311 75.6229C719.784 73.3672 721.301 70.6175 722 69.5246Z" fill="black" fill-opacity="0.12"/>
<path d="M1126 487.525L1125.8 471C1125.34 471.721 1124.02 476.049 1122.92 478.148C1121.82 480.246 1119.14 478.322 1117.93 477.098C1118.57 480.486 1119.3 485.885 1119.51 486.672C1119.72 487.458 1118.79 487.503 1118.33 487.525L1118.33 487.525L1114.26 483.787C1114.11 485.011 1113.41 487 1111.97 487C1110.45 487 1108.03 486.279 1106.98 486.148C1107.31 487.546 1108.23 488.574 1108.69 491.525C1108.86 492.618 1108.45 493.23 1107.97 493.492C1106.45 493.702 1106.02 494.06 1106 494.213C1113.71 499.564 1114.02 502.628 1114.26 503.066C1114.28 503.568 1114.3 504.075 1113.67 504.967C1113.04 505.859 1113.23 506.694 1113.41 506.738C1115.7 506.235 1122.51 504.548 1123.51 504.443C1124.5 504.338 1124.34 504.792 1124.43 504.967L1123.84 516.377H1125.87V502.475H1125.67C1119.84 503.328 1114.79 499.066 1115.9 499.066C1116.98 499.066 1118.96 499.35 1119.84 499.459C1118.09 497.995 1114.87 494.298 1115.9 494.672C1116.62 494.934 1119.75 495.765 1121.02 496.508C1119.97 494.322 1117.92 489.97 1118.98 490.803C1119.9 491.525 1122.59 492.661 1123.31 493.623C1123.78 491.367 1125.3 488.617 1126 487.525Z" fill="black" fill-opacity="0.12"/>
<path d="M210 142.525L209.803 126C209.344 126.721 208.02 131.049 206.918 133.148C205.816 135.246 203.137 133.322 201.934 132.098C202.568 135.486 203.298 140.885 203.508 141.672C203.718 142.458 202.788 142.503 202.329 142.525L202.328 142.525L198.262 138.787C198.109 140.011 197.41 142 195.967 142C194.453 142 192.033 141.279 190.984 141.148C191.311 142.546 192.23 143.574 192.689 146.525C192.859 147.618 192.448 148.23 191.967 148.492C190.446 148.702 190.022 149.06 190 149.213C197.711 154.564 198.022 157.628 198.262 158.066C198.284 158.568 198.302 159.075 197.672 159.967C197.043 160.859 197.235 161.694 197.41 161.738C199.705 161.235 206.511 159.548 207.508 159.443C208.505 159.338 208.339 159.792 208.426 159.967L207.836 171.377H209.869V157.475H209.672C203.836 158.328 198.787 154.066 199.902 154.066C200.983 154.066 202.962 154.35 203.836 154.459C202.087 152.995 198.872 149.298 199.902 149.672C200.623 149.934 203.749 150.765 205.016 151.508C203.967 149.322 201.923 144.97 202.984 145.803C203.902 146.525 206.59 147.661 207.311 148.623C207.784 146.367 209.301 143.617 210 142.525Z" fill="black" fill-opacity="0.12"/>
<path d="M918 27.5246L917.803 11C917.344 11.7213 916.02 16.0492 914.918 18.1475C913.816 20.2459 911.137 18.3224 909.934 17.0984C910.568 20.4863 911.298 25.8852 911.508 26.6721C911.718 27.4584 910.788 27.5027 910.329 27.5245L910.328 27.5246L906.262 23.7869C906.109 25.0109 905.41 27 903.967 27C902.453 27 900.033 26.2787 898.984 26.1475C899.311 27.5464 900.23 28.5738 900.689 31.5246C900.859 32.6181 900.448 33.2295 899.967 33.4918C898.446 33.7016 898.022 34.0601 898 34.2131C905.711 39.5639 906.022 42.6284 906.262 43.0656C906.284 43.5683 906.302 44.0754 905.672 44.9672C905.043 45.859 905.235 46.694 905.41 46.7377C907.705 46.235 914.511 44.5475 915.508 44.4426C916.505 44.3377 916.339 44.7923 916.426 44.9672L915.836 56.377H917.869V42.4754H917.672C911.836 43.3279 906.787 39.0656 907.902 39.0656C908.983 39.0656 910.962 39.3497 911.836 39.459C910.087 37.9945 906.872 34.2978 907.902 34.6721C908.623 34.9344 911.749 35.765 913.016 36.5082C911.967 34.3224 909.923 29.97 910.984 30.8033C911.902 31.5246 914.59 32.6612 915.311 33.6229C915.784 31.3672 917.301 28.6175 918 27.5246Z" fill="black" fill-opacity="0.12"/>
<path d="M60 643.525L59.8033 627C59.3443 627.721 58.0197 632.049 56.918 634.148C55.8164 636.246 53.1366 634.322 51.9344 633.098C52.5683 636.486 53.2984 641.885 53.5082 642.672C53.7179 643.458 52.7883 643.503 52.3289 643.525L52.3279 643.525L48.2623 639.787C48.1093 641.011 47.4098 643 45.9672 643C44.4532 643 42.0328 642.279 40.9836 642.148C41.3115 643.546 42.2295 644.574 42.6885 647.525C42.8586 648.618 42.4481 649.23 41.9672 649.492C40.4459 649.702 40.0219 650.06 40 650.213C47.7115 655.564 48.0219 658.628 48.2623 659.066C48.2842 659.568 48.3016 660.075 47.6721 660.967C47.0426 661.859 47.235 662.694 47.4098 662.738C49.7049 662.235 56.5115 660.548 57.5082 660.443C58.5049 660.338 58.3388 660.792 58.4262 660.967L57.8361 672.377H59.8688V658.475H59.6721C53.8361 659.328 48.7869 655.066 49.9016 655.066C50.9831 655.066 52.9618 655.35 53.8361 655.459C52.0874 653.995 48.8722 650.298 49.9016 650.672C50.623 650.934 53.7486 651.765 55.0164 652.508C53.9672 650.322 51.9231 645.97 52.9836 646.803C53.9016 647.525 56.5902 648.661 57.3115 649.623C57.7836 647.367 59.3005 644.617 60 643.525Z" fill="black" fill-opacity="0.12"/>
<path d="M80 50.5246L79.8033 34C79.3443 34.7213 78.0197 39.0492 76.918 41.1475C75.8164 43.2459 73.1366 41.3224 71.9344 40.0984C72.5683 43.4863 73.2984 48.8852 73.5082 49.6721C73.7179 50.4584 72.7883 50.5027 72.3289 50.5245L72.3279 50.5246L68.2623 46.7869C68.1093 48.0109 67.4098 50 65.9672 50C64.4532 50 62.0328 49.2787 60.9836 49.1475C61.3115 50.5464 62.2295 51.5738 62.6885 54.5246C62.8586 55.6181 62.4481 56.2295 61.9672 56.4918C60.4459 56.7016 60.0219 57.0601 60 57.2131C67.7115 62.5639 68.0219 65.6284 68.2623 66.0656C68.2842 66.5683 68.3016 67.0754 67.6721 67.9672C67.0426 68.859 67.235 69.694 67.4098 69.7377C69.7049 69.235 76.5115 67.5475 77.5082 67.4426C78.5049 67.3377 78.3388 67.7923 78.4262 67.9672L77.8361 79.377H79.8688V65.4754H79.6721C73.8361 66.3279 68.7869 62.0656 69.9016 62.0656C70.9831 62.0656 72.9618 62.3497 73.8361 62.459C72.0874 60.9945 68.8722 57.2978 69.9016 57.6721C70.623 57.9344 73.7486 58.765 75.0164 59.5082C73.9672 57.3224 71.9231 52.97 72.9836 53.8033C73.9016 54.5246 76.5902 55.6612 77.3115 56.6229C77.7836 54.3672 79.3005 51.6175 80 50.5246Z" fill="black" fill-opacity="0.12"/>
<path d="M1146 205.525L1145.8 189C1145.34 189.721 1144.02 194.049 1142.92 196.148C1141.82 198.246 1139.14 196.322 1137.93 195.098C1138.57 198.486 1139.3 203.885 1139.51 204.672C1139.72 205.458 1138.79 205.503 1138.33 205.525L1138.33 205.525L1134.26 201.787C1134.11 203.011 1133.41 205 1131.97 205C1130.45 205 1128.03 204.279 1126.98 204.148C1127.31 205.546 1128.23 206.574 1128.69 209.525C1128.86 210.618 1128.45 211.23 1127.97 211.492C1126.45 211.702 1126.02 212.06 1126 212.213C1133.71 217.564 1134.02 220.628 1134.26 221.066C1134.28 221.568 1134.3 222.075 1133.67 222.967C1133.04 223.859 1133.23 224.694 1133.41 224.738C1135.7 224.235 1142.51 222.548 1143.51 222.443C1144.5 222.338 1144.34 222.792 1144.43 222.967L1143.84 234.377H1145.87V220.475H1145.67C1139.84 221.328 1134.79 217.066 1135.9 217.066C1136.98 217.066 1138.96 217.35 1139.84 217.459C1138.09 215.995 1134.87 212.298 1135.9 212.672C1136.62 212.934 1139.75 213.765 1141.02 214.508C1139.97 212.322 1137.92 207.97 1138.98 208.803C1139.9 209.525 1142.59 210.661 1143.31 211.623C1143.78 209.367 1145.3 206.617 1146 205.525Z" fill="black" fill-opacity="0.12"/>
<path d="M302 86.7443L301.646 57C300.82 58.2984 298.435 66.0885 296.452 69.8656C294.47 73.6426 289.646 70.1803 287.482 67.9771C288.623 74.0754 289.937 83.7934 290.315 85.2098C290.692 86.6251 289.019 86.7048 288.192 86.7442L288.19 86.7443L280.872 80.0164C280.597 82.2197 279.338 85.8 276.741 85.8C274.016 85.8 269.659 84.5016 267.77 84.2656C268.361 86.7836 270.013 88.6328 270.839 93.9443C271.146 95.9125 270.407 97.0131 269.541 97.4852C266.803 97.8629 266.039 98.5082 266 98.7836C279.881 108.415 280.439 113.931 280.872 114.718C280.911 115.623 280.943 116.536 279.81 118.141C278.677 119.746 279.023 121.249 279.338 121.328C283.469 120.423 295.721 117.386 297.515 117.197C299.309 117.008 299.01 117.826 299.167 118.141L298.105 138.679H301.764V113.656H301.41C290.905 115.19 281.816 107.518 283.823 107.518C285.77 107.518 289.331 108.03 290.905 108.226C287.757 105.59 281.97 98.936 283.823 99.6098C285.121 100.082 290.748 101.577 293.03 102.915C291.141 98.9803 287.462 91.146 289.37 92.6459C291.023 93.9443 295.862 95.9902 297.161 97.7213C298.01 93.661 300.741 88.7115 302 86.7443Z" fill="black" fill-opacity="0.12"/>
<path d="M190 656.744L189.646 627C188.82 628.298 186.435 636.089 184.452 639.866C182.47 643.643 177.646 640.18 175.482 637.977C176.623 644.075 177.937 653.793 178.315 655.21C178.692 656.625 177.019 656.705 176.192 656.744L176.19 656.744L168.872 650.016C168.597 652.22 167.338 655.8 164.741 655.8C162.016 655.8 157.659 654.502 155.77 654.266C156.361 656.784 158.013 658.633 158.839 663.944C159.146 665.913 158.407 667.013 157.541 667.485C154.803 667.863 154.039 668.508 154 668.784C167.881 678.415 168.439 683.931 168.872 684.718C168.911 685.623 168.943 686.536 167.81 688.141C166.677 689.746 167.023 691.249 167.338 691.328C171.469 690.423 183.721 687.386 185.515 687.197C187.309 687.008 187.01 687.826 187.167 688.141L186.105 708.679H189.764V683.656H189.41C178.905 685.19 169.816 677.518 171.823 677.518C173.77 677.518 177.331 678.03 178.905 678.226C175.757 675.59 169.97 668.936 171.823 669.61C173.121 670.082 178.748 671.577 181.03 672.915C179.141 668.98 175.462 661.146 177.37 662.646C179.023 663.944 183.862 665.99 185.161 667.721C186.01 663.661 188.741 658.711 190 656.744Z" fill="black" fill-opacity="0.12"/>
<path d="M266 398.744L265.646 369C264.82 370.298 262.435 378.089 260.452 381.866C258.47 385.643 253.646 382.18 251.482 379.977C252.623 386.075 253.937 395.793 254.315 397.21C254.692 398.625 253.019 398.705 252.192 398.744L252.19 398.744L244.872 392.016C244.597 394.22 243.338 397.8 240.741 397.8C238.016 397.8 233.659 396.502 231.77 396.266C232.361 398.784 234.013 400.633 234.839 405.944C235.146 407.913 234.407 409.013 233.541 409.485C230.803 409.863 230.039 410.508 230 410.784C243.881 420.415 244.439 425.931 244.872 426.718C244.911 427.623 244.943 428.536 243.81 430.141C242.677 431.746 243.023 433.249 243.338 433.328C247.469 432.423 259.721 429.386 261.515 429.197C263.309 429.008 263.01 429.826 263.167 430.141L262.105 450.679H265.764V425.656H265.41C254.905 427.19 245.816 419.518 247.823 419.518C249.77 419.518 253.331 420.03 254.905 420.226C251.757 417.59 245.97 410.936 247.823 411.61C249.121 412.082 254.748 413.577 257.03 414.915C255.141 410.98 251.462 403.146 253.37 404.646C255.023 405.944 259.862 407.99 261.161 409.721C262.01 405.661 264.741 400.711 266 398.744Z" fill="black" fill-opacity="0.12"/>
<path d="M513 628.744L512.646 599C511.82 600.298 509.435 608.089 507.452 611.866C505.47 615.643 500.646 612.18 498.482 609.977C499.623 616.075 500.937 625.793 501.315 627.21C501.692 628.625 500.019 628.705 499.192 628.744L499.19 628.744L491.872 622.016C491.597 624.22 490.338 627.8 487.741 627.8C485.016 627.8 480.659 626.502 478.77 626.266C479.361 628.784 481.013 630.633 481.839 635.944C482.146 637.913 481.407 639.013 480.541 639.485C477.803 639.863 477.039 640.508 477 640.784C490.881 650.415 491.439 655.931 491.872 656.718C491.911 657.623 491.943 658.536 490.81 660.141C489.677 661.746 490.023 663.249 490.338 663.328C494.469 662.423 506.721 659.386 508.515 659.197C510.309 659.008 510.01 659.826 510.167 660.141L509.105 680.679H512.764V655.656H512.41C501.905 657.19 492.816 649.518 494.823 649.518C496.77 649.518 500.331 650.03 501.905 650.226C498.757 647.59 492.97 640.936 494.823 641.61C496.121 642.082 501.748 643.577 504.03 644.915C502.141 640.98 498.462 633.146 500.37 634.646C502.023 635.944 506.862 637.99 508.161 639.721C509.01 635.661 511.741 630.711 513 628.744Z" fill="black" fill-opacity="0.12"/>
<path d="M926 669.744L925.646 640C924.82 641.298 922.435 649.089 920.452 652.866C918.47 656.643 913.646 653.18 911.482 650.977C912.623 657.075 913.937 666.793 914.315 668.21C914.692 669.625 913.019 669.705 912.192 669.744L912.19 669.744L904.872 663.016C904.597 665.22 903.338 668.8 900.741 668.8C898.016 668.8 893.659 667.502 891.77 667.266C892.361 669.784 894.013 671.633 894.839 676.944C895.146 678.913 894.407 680.013 893.541 680.485C890.803 680.863 890.039 681.508 890 681.784C903.881 691.415 904.439 696.931 904.872 697.718C904.911 698.623 904.943 699.536 903.81 701.141C902.677 702.746 903.023 704.249 903.338 704.328C907.469 703.423 919.721 700.386 921.515 700.197C923.309 700.008 923.01 700.826 923.167 701.141L922.105 721.679H925.764V696.656H925.41C914.905 698.19 905.816 690.518 907.823 690.518C909.77 690.518 913.331 691.03 914.905 691.226C911.757 688.59 905.97 681.936 907.823 682.61C909.121 683.082 914.748 684.577 917.03 685.915C915.141 681.98 911.462 674.146 913.37 675.646C915.023 676.944 919.862 678.99 921.161 680.721C922.01 676.661 924.741 671.711 926 669.744Z" fill="black" fill-opacity="0.12"/>
<path d="M688 411.744L687.646 382C686.82 383.298 684.435 391.089 682.452 394.866C680.47 398.643 675.646 395.18 673.482 392.977C674.623 399.075 675.937 408.793 676.315 410.21C676.692 411.625 675.019 411.705 674.192 411.744L674.19 411.744L666.872 405.016C666.597 407.22 665.338 410.8 662.741 410.8C660.016 410.8 655.659 409.502 653.77 409.266C654.361 411.784 656.013 413.633 656.839 418.944C657.146 420.913 656.407 422.013 655.541 422.485C652.803 422.863 652.039 423.508 652 423.784C665.881 433.415 666.439 438.931 666.872 439.718C666.911 440.623 666.943 441.536 665.81 443.141C664.677 444.746 665.023 446.249 665.338 446.328C669.469 445.423 681.721 442.386 683.515 442.197C685.309 442.008 685.01 442.826 685.167 443.141L684.105 463.679H687.764V438.656H687.41C676.905 440.19 667.816 432.518 669.823 432.518C671.77 432.518 675.331 433.03 676.905 433.226C673.757 430.59 667.97 423.936 669.823 424.61C671.121 425.082 676.748 426.577 679.03 427.915C677.141 423.98 673.462 416.146 675.37 417.646C677.023 418.944 681.862 420.99 683.161 422.721C684.01 418.661 686.741 413.711 688 411.744Z" fill="black" fill-opacity="0.12"/>
<path d="M1105 681.744L1104.65 652C1103.82 653.298 1101.44 661.089 1099.45 664.866C1097.47 668.643 1092.65 665.18 1090.48 662.977C1091.62 669.075 1092.94 678.793 1093.31 680.21C1093.69 681.625 1092.02 681.705 1091.19 681.744L1091.19 681.744L1083.87 675.016C1083.6 677.22 1082.34 680.8 1079.74 680.8C1077.02 680.8 1072.66 679.502 1070.77 679.266C1071.36 681.784 1073.01 683.633 1073.84 688.944C1074.15 690.913 1073.41 692.013 1072.54 692.485C1069.8 692.863 1069.04 693.508 1069 693.784C1082.88 703.415 1083.44 708.931 1083.87 709.718C1083.91 710.623 1083.94 711.536 1082.81 713.141C1081.68 714.746 1082.02 716.249 1082.34 716.328C1086.47 715.423 1098.72 712.386 1100.51 712.197C1102.31 712.008 1102.01 712.826 1102.17 713.141L1101.1 733.679H1104.76V708.656H1104.41C1093.9 710.19 1084.82 702.518 1086.82 702.518C1088.77 702.518 1092.33 703.03 1093.9 703.226C1090.76 700.59 1084.97 693.936 1086.82 694.61C1088.12 695.082 1093.75 696.577 1096.03 697.915C1094.14 693.98 1090.46 686.146 1092.37 687.646C1094.02 688.944 1098.86 690.99 1100.16 692.721C1101.01 688.661 1103.74 683.711 1105 681.744Z" fill="black" fill-opacity="0.12"/>
</svg>
