<svg width="160" height="360" viewBox="0 0 160 360" fill="none" xmlns="http://www.w3.org/2000/svg">
<path d="M156.5 137L155 11C151.5 16.5 141.4 49.5 133 65.5C124.6 81.5 104.167 66.8333 95 57.5C99.8334 83.3333 105.4 124.5 107 130.5C108.599 136.495 101.511 136.833 98.0082 137L98 137L67 108.5C65.8333 117.833 60.5 133 49.5 133C37.9553 133 19.5 127.5 11.5 126.5C14 137.167 21 145 24.5 167.5C25.797 175.838 22.6667 180.5 19 182.5C7.4 184.1 4.16667 186.833 4 188C62.8 228.8 65.1667 252.167 67 255.5C67.1667 259.333 67.3 263.2 62.5 270C57.7 276.8 59.1667 283.167 60.5 283.5C78 279.667 129.9 266.8 137.5 266C145.1 265.2 143.833 268.667 144.5 270L140 357H155.5V251H154C109.5 257.5 71 225 79.5001 225C87.7463 225 102.833 227.167 109.5 228C96.1667 216.833 71.6507 188.646 79.5001 191.5C85 193.5 108.833 199.833 118.5 205.5C110.5 188.833 94.9135 155.646 103 162C110 167.5 130.5 176.167 136 183.5C139.6 166.3 151.167 145.333 156.5 137Z" stroke="black" stroke-width="6"/>
</svg>
